<mxfile host="65bd71144e">
    <diagram id="WH9oHksoD1uJccYumJbU" name="Страница 1">
        <mxGraphModel dx="788" dy="451" grid="1" gridSize="10" guides="1" tooltips="1" connect="1" arrows="1" fold="1" page="1" pageScale="1" pageWidth="850" pageHeight="1100" math="0" shadow="0">
            <root>
                <mxCell id="0"/>
                <mxCell id="1" parent="0"/>
                <mxCell id="3" value="Запуск&lt;br&gt;(Функция Curry)" style="strokeWidth=2;html=1;shape=mxgraph.flowchart.terminator;whiteSpace=wrap;" parent="1" vertex="1">
                    <mxGeometry x="410" y="20" width="170" height="102" as="geometry"/>
                </mxCell>
                <mxCell id="5" value="Функция,&amp;nbsp;&lt;br&gt;которую нужно&lt;br&gt;каррировать" style="shape=parallelogram;html=1;strokeWidth=2;perimeter=parallelogramPerimeter;whiteSpace=wrap;rounded=1;arcSize=12;size=0.23;" parent="1" vertex="1">
                    <mxGeometry x="410" y="190" width="170" height="102" as="geometry"/>
                </mxCell>
                <mxCell id="6" value="" style="endArrow=classic;html=1;exitX=0.5;exitY=1;exitDx=0;exitDy=0;exitPerimeter=0;entryX=0.5;entryY=0;entryDx=0;entryDy=0;" parent="1" source="3" target="5" edge="1">
                    <mxGeometry width="50" height="50" relative="1" as="geometry">
                        <mxPoint x="400" y="220" as="sourcePoint"/>
                        <mxPoint x="450" y="170" as="targetPoint"/>
                    </mxGeometry>
                </mxCell>
                <mxCell id="7" value="Curry возвращает&lt;br&gt;каррированный вариант&lt;br&gt;переданной в качестве&lt;br&gt;аргумента функции&lt;br&gt;(возвращает Curried)" style="strokeWidth=2;html=1;shape=mxgraph.flowchart.terminator;whiteSpace=wrap;" parent="1" vertex="1">
                    <mxGeometry x="410" y="531" width="170" height="102" as="geometry"/>
                </mxCell>
                <mxCell id="9" value="" style="endArrow=classic;html=1;exitX=0.5;exitY=1;exitDx=0;exitDy=0;exitPerimeter=0;entryX=0.5;entryY=0;entryDx=0;entryDy=0;" parent="1" edge="1">
                    <mxGeometry width="50" height="50" relative="1" as="geometry">
                        <mxPoint x="494.5" y="291" as="sourcePoint"/>
                        <mxPoint x="494.5" y="359" as="targetPoint"/>
                    </mxGeometry>
                </mxCell>
                <mxCell id="10" value="Curry выполняет необходимые&lt;br&gt;для каррирования&lt;br&gt;операции" style="rounded=1;whiteSpace=wrap;html=1;absoluteArcSize=1;arcSize=14;strokeWidth=2;" parent="1" vertex="1">
                    <mxGeometry x="410" y="360" width="170" height="102" as="geometry"/>
                </mxCell>
                <mxCell id="11" value="" style="endArrow=classic;html=1;exitX=0.5;exitY=1;exitDx=0;exitDy=0;exitPerimeter=0;entryX=0.5;entryY=0;entryDx=0;entryDy=0;" parent="1" edge="1">
                    <mxGeometry width="50" height="50" relative="1" as="geometry">
                        <mxPoint x="494.5" y="462" as="sourcePoint"/>
                        <mxPoint x="494.5" y="530" as="targetPoint"/>
                    </mxGeometry>
                </mxCell>
                <mxCell id="17" value="Функция, принимающая&lt;br&gt;в качестве аргумента&lt;br&gt;функцию, которую нужно&lt;br&gt;каррировать и&amp;nbsp;&lt;br&gt;возвращающая&amp;nbsp;&lt;br&gt;каррированный вариант&lt;br&gt;принятой функции" style="strokeWidth=2;html=1;shape=mxgraph.flowchart.annotation_2;align=left;labelPosition=right;pointerEvents=1;" vertex="1" parent="1">
                    <mxGeometry x="580" y="22" width="50" height="100" as="geometry"/>
                </mxCell>
                <mxCell id="18" value="Запуск&lt;br&gt;(Функция Curry)" style="strokeWidth=2;html=1;shape=mxgraph.flowchart.terminator;whiteSpace=wrap;" vertex="1" parent="1">
                    <mxGeometry x="840" y="20" width="170" height="102" as="geometry"/>
                </mxCell>
                <mxCell id="19" value="" style="endArrow=classic;html=1;exitX=0.5;exitY=1;exitDx=0;exitDy=0;exitPerimeter=0;entryX=0.5;entryY=0;entryDx=0;entryDy=0;" edge="1" parent="1">
                    <mxGeometry width="50" height="50" relative="1" as="geometry">
                        <mxPoint x="924.5" y="122" as="sourcePoint"/>
                        <mxPoint x="924.5" y="190" as="targetPoint"/>
                    </mxGeometry>
                </mxCell>
                <mxCell id="20" value="Принимает&lt;br&gt;вариативное число&lt;br&gt;аргументов" style="shape=parallelogram;html=1;strokeWidth=2;perimeter=parallelogramPerimeter;whiteSpace=wrap;rounded=1;arcSize=12;size=0.23;" vertex="1" parent="1">
                    <mxGeometry x="840" y="190" width="170" height="102" as="geometry"/>
                </mxCell>
                <mxCell id="21" value="Каррированная функция,&lt;br&gt;т.к. она возвращается&lt;br&gt;функцией высшего порядка&lt;br&gt;(Curry) - имеет доступ к&amp;nbsp;&lt;br&gt;аргументам Curry за счёт&lt;br&gt;замыкания, а именно - к&lt;br&gt;первоначальной каррируемой&lt;br&gt;функции" style="strokeWidth=2;html=1;shape=mxgraph.flowchart.annotation_2;align=left;labelPosition=right;pointerEvents=1;" vertex="1" parent="1">
                    <mxGeometry x="1010" y="22" width="50" height="100" as="geometry"/>
                </mxCell>
                <mxCell id="22" value="&lt;font style=&quot;font-size: 12px;&quot;&gt;Число&lt;br&gt;&amp;nbsp;аргументов&lt;br&gt;равно или больше&lt;br&gt;числа аргументов&lt;br&gt;первоначальной (каррируемой)&lt;br&gt;функции?&lt;/font&gt;" style="strokeWidth=2;html=1;shape=mxgraph.flowchart.decision;whiteSpace=wrap;" vertex="1" parent="1">
                    <mxGeometry x="840" y="361" width="170" height="170" as="geometry"/>
                </mxCell>
                <mxCell id="26" value="" style="endArrow=classic;html=1;exitX=0.5;exitY=1;exitDx=0;exitDy=0;exitPerimeter=0;entryX=0.5;entryY=0;entryDx=0;entryDy=0;" edge="1" parent="1">
                    <mxGeometry width="50" height="50" relative="1" as="geometry">
                        <mxPoint x="924.5" y="292" as="sourcePoint"/>
                        <mxPoint x="924.5" y="360" as="targetPoint"/>
                    </mxGeometry>
                </mxCell>
                <mxCell id="27" value="" style="endArrow=classic;html=1;exitX=1;exitY=0.5;exitDx=0;exitDy=0;exitPerimeter=0;" edge="1" parent="1" source="22">
                    <mxGeometry width="50" height="50" relative="1" as="geometry">
                        <mxPoint x="934.5" y="302" as="sourcePoint"/>
                        <mxPoint x="1080" y="446" as="targetPoint"/>
                    </mxGeometry>
                </mxCell>
                <mxCell id="31" value="Да" style="edgeLabel;html=1;align=center;verticalAlign=middle;resizable=0;points=[];fontSize=12;" vertex="1" connectable="0" parent="27">
                    <mxGeometry x="-0.3426" y="-2" relative="1" as="geometry">
                        <mxPoint as="offset"/>
                    </mxGeometry>
                </mxCell>
                <mxCell id="32" value="" style="endArrow=classic;html=1;exitX=0;exitY=0.5;exitDx=0;exitDy=0;exitPerimeter=0;" edge="1" parent="1" source="22">
                    <mxGeometry width="50" height="50" relative="1" as="geometry">
                        <mxPoint x="790" y="480" as="sourcePoint"/>
                        <mxPoint x="770" y="446" as="targetPoint"/>
                    </mxGeometry>
                </mxCell>
                <mxCell id="35" value="Нет" style="edgeLabel;html=1;align=center;verticalAlign=middle;resizable=0;points=[];fontSize=12;" vertex="1" connectable="0" parent="32">
                    <mxGeometry x="-0.3852" y="2" relative="1" as="geometry">
                        <mxPoint as="offset"/>
                    </mxGeometry>
                </mxCell>
                <mxCell id="36" value="Curried вызывает первоначальную функцию, передавая ей нужное количество аргументов" style="strokeWidth=2;html=1;shape=mxgraph.flowchart.terminator;whiteSpace=wrap;" vertex="1" parent="1">
                    <mxGeometry x="1080" y="398" width="170" height="102" as="geometry"/>
                </mxCell>
                <mxCell id="38" value="Curried возвращает&amp;nbsp;&lt;br&gt;новую функцию, которая примет вариативное количество аргументов и&amp;nbsp; вызовет&amp;nbsp;curried с текущими аргументами и вновь переданными&amp;nbsp;" style="strokeWidth=2;html=1;shape=mxgraph.flowchart.terminator;whiteSpace=wrap;" vertex="1" parent="1">
                    <mxGeometry x="600" y="398" width="170" height="102" as="geometry"/>
                </mxCell>
            </root>
        </mxGraphModel>
    </diagram>
</mxfile>